HIERARCHY
ROOT Hips
{
	OFFSET 0.000000 88.474243 0.000000
	CHANNELS 6 Xposition Yposition Zposition Zrotation Yrotation Xrotation 
	JOINT Hips_Spine
	{
		OFFSET 0.000000 0.000000 0.000000
		CHANNELS 3 Zrotation Yrotation Xrotation
		JOINT Spine
		{
			OFFSET 0.005100 8.711998 -0.691000
			CHANNELS 3 Zrotation Yrotation Xrotation
			JOINT Spine1
			{
				OFFSET -0.009200 8.660301 -1.275000
				CHANNELS 3 Zrotation Yrotation Xrotation
				JOINT Spine2
				{
					OFFSET 0.006300 9.852501 -1.857000
					CHANNELS 3 Zrotation Yrotation Xrotation
					JOINT Spine2_Neck
					{
						OFFSET 0.000000 0.000000 0.000000
						CHANNELS 3 Zrotation Yrotation Xrotation
						JOINT Neck
						{
							OFFSET 0.016300 11.420799 -0.263300
							CHANNELS 3 Zrotation Yrotation Xrotation
							End Site #name: Head
							{
								OFFSET -0.019200 9.262405 2.362500
							}
						}
					}
					JOINT Spine2_LeftShoulder
					{
						OFFSET 0.000000 0.000000 0.000000
						CHANNELS 3 Zrotation Yrotation Xrotation
						JOINT LeftShoulder
						{
							OFFSET 5.616900 6.732201 -0.345700
							CHANNELS 3 Zrotation Yrotation Xrotation
							JOINT LeftArm
							{
								OFFSET 10.664888 -0.183372 -2.440700
								CHANNELS 3 Zrotation Yrotation Xrotation
								JOINT LeftForeArm
								{
									OFFSET 27.459126 0.000000 0.000000
									CHANNELS 3 Zrotation Yrotation Xrotation
									End Site #name: LeftHand
									{
										OFFSET 21.306858 0.000000 0.000000
									}
								}
							}
						}
					}
					JOINT Spine2_RightShoulder
					{
						OFFSET 0.000000 0.000000 0.000000
						CHANNELS 3 Zrotation Yrotation Xrotation
						JOINT RightShoulder
						{
							OFFSET -5.580300 6.737503 -0.344400
							CHANNELS 3 Zrotation Yrotation Xrotation
							JOINT RightArm
							{
								OFFSET -10.679335 -0.188484 -2.383900
								CHANNELS 3 Zrotation Yrotation Xrotation
								JOINT RightForeArm
								{
									OFFSET -27.503529 0.000000 0.000000
									CHANNELS 3 Zrotation Yrotation Xrotation
									End Site #name: RightHand
									{
										OFFSET -21.306808 0.000000 0.000000
									}
								}
							}
						}
					}
				}
			}
		}
	}
	JOINT Hips_LeftUpLeg
	{
		OFFSET 0.000000 0.000000 0.000000
		CHANNELS 3 Zrotation Yrotation Xrotation
		JOINT LeftUpLeg
		{
			OFFSET 6.857700 -6.739601 0.312100
			CHANNELS 3 Zrotation Yrotation Xrotation
			JOINT LeftLeg
			{
				OFFSET -0.367590 -34.731552 -4.572400
				CHANNELS 3 Zrotation Yrotation Xrotation
				End Site #name: LeftFoot
				{
					OFFSET 0.367590 -34.656704 -6.067400
				}
			}
		}
	}
	JOINT Hips_RightUpLeg
	{
		OFFSET 0.000000 0.000000 0.000000
		CHANNELS 3 Zrotation Yrotation Xrotation
		JOINT RightUpLeg
		{
			OFFSET -6.876100 -6.733299 0.301000
			CHANNELS 3 Zrotation Yrotation Xrotation
			JOINT RightLeg
			{
				OFFSET 0.347353 -34.795158 -4.515900
				CHANNELS 3 Zrotation Yrotation Xrotation
				End Site #name: RightFoot
				{
					OFFSET -0.347353 -34.589367 -6.070300
				}
			}
		}
	}
}
MOTION
Frames: 10
Frame Time: 0.041667
0.026120 -0.003337 -0.103712 -179.981523 54.210412 -176.870980 -0.000000 -0.000000 0.000000 -1.820207 1.387338 -2.678709 2.030271 -0.325710 2.448471 0.000000 0.000000 0.000000 1.989387 -1.197994 -0.028408 -1.518665 -6.144882 -0.721670 1.141338 -0.063094 0.548311 -5.973079 -5.311668 1.331798 -76.059423 -4.512112 9.963059 0.263603 -20.610137 3.096492 1.163777 -0.981218 2.288653 17.673705 11.295645 3.809072 50.352242 14.938550 -9.874624 -5.853467 63.722579 -0.387223 0.000000 -0.000000 0.000000 -5.048844 16.633705 -15.261564 -4.255630 -23.587489 -1.346221 0.000000 -0.000000 -0.000000 -7.069090 -22.291166 -10.524737 -12.717107 -9.595625 18.241844 
0.048433 -0.146808 -0.168110 176.743881 69.203562 -178.213066 -0.000000 -0.000000 0.000000 -3.292718 0.366286 0.494714 2.659222 -0.540214 2.060965 0.000000 0.000000 0.000000 2.467357 -0.905395 1.513145 -0.688929 -10.779574 -0.031898 1.737083 -0.399222 0.413374 -4.232338 -6.389605 1.256963 -81.561268 -13.691233 4.967423 -1.200856 -17.332476 2.016643 2.636421 -1.275187 2.197718 23.056820 12.306663 3.816846 50.364923 15.542475 -8.632893 -3.659975 48.516477 1.207993 0.000000 -0.000000 -0.000000 -4.526708 17.025313 -14.877838 -3.177540 -23.421603 -4.166230 0.000000 -0.000000 -0.000000 -7.814045 -22.767208 -11.121365 -10.772335 -8.240821 19.253890 
0.109425 -0.199200 -0.169155 175.533165 66.415690 -178.946624 -0.000000 -0.000000 0.000000 -3.235360 -2.081295 1.405630 2.909435 -0.850731 2.031921 0.000000 0.000000 0.000000 3.004309 -1.209391 1.944445 -1.485297 -17.405529 1.252897 1.817849 -0.539368 0.144853 -3.540879 -5.045285 0.463242 -81.698555 -14.673956 -0.398111 -0.870254 -10.282462 2.239293 2.888565 -1.652071 1.948342 24.087759 13.500130 4.379109 50.748556 18.036246 -4.335672 -3.923233 45.085342 1.755922 0.000000 -0.000000 -0.000000 -3.499888 17.611502 -13.993911 -3.052945 -24.021326 -4.314132 -0.000000 -0.000000 -0.000000 -7.871730 -23.682214 -10.467199 -10.267053 -9.552545 20.294395 
0.249528 -0.236502 -0.175491 177.706740 60.843755 -177.632770 -0.000000 -0.000000 0.000000 -2.771042 -3.659286 2.467354 2.564951 -1.241022 1.863622 0.000000 0.000000 0.000000 2.887960 -1.580677 2.164097 -2.377795 -21.353788 2.055729 1.647707 -0.900918 -0.138305 -3.246461 -4.283791 -0.089480 -82.360286 -16.251396 -0.540641 0.046278 -7.182199 3.046668 2.589328 -2.349065 1.827863 22.572270 12.713439 4.266570 51.469953 19.451184 -3.054966 -3.953800 47.503985 1.580175 -0.000000 -0.000000 -0.000000 -2.665199 18.228518 -12.517276 -2.568076 -24.996409 -4.739430 -0.000000 -0.000000 -0.000000 -8.024514 -26.942951 -9.849321 -10.576302 -10.575511 20.478761 
0.376763 -0.260264 -0.220740 178.346012 54.889903 -177.447243 -0.000000 -0.000000 0.000000 -1.549077 -4.136525 2.544135 2.154281 -1.492527 1.615823 0.000000 0.000000 0.000000 2.521463 -1.792823 2.599997 -2.069051 -23.637300 2.562010 1.224684 -1.281997 -0.189895 -2.786367 -2.800346 -1.332976 -82.088577 -17.765632 0.269276 2.120009 -7.420361 5.713522 1.983735 -2.825426 1.729983 20.723436 11.289206 4.154820 52.205066 20.503080 -1.377907 -3.925787 50.977850 1.172212 -0.000000 0.000000 -0.000000 -2.346944 18.591436 -11.798380 -2.299188 -25.950251 -4.947991 -0.000000 -0.000000 -0.000000 -8.039663 -29.930507 -9.355625 -11.550608 -11.388151 20.585935 
0.513327 -0.278777 -0.281714 177.962373 50.184274 -177.673580 -0.000000 -0.000000 0.000000 -0.554396 -3.661224 2.936671 1.579540 -1.617478 1.612605 0.000000 0.000000 0.000000 2.044106 -1.868125 3.009695 -1.827049 -24.617402 2.994082 0.798879 -1.451864 -0.101344 -2.728104 -2.210480 -1.761694 -81.158513 -18.910569 2.134865 4.530138 -8.777522 8.885247 1.416393 -2.959959 1.634239 19.390499 8.227295 4.954250 53.025434 21.022426 0.190387 -4.099634 53.997712 0.718047 -0.000000 0.000000 -0.000000 -2.378849 18.439468 -11.912658 -2.281887 -26.483317 -4.783683 -0.000000 -0.000000 -0.000000 -7.926222 -32.404105 -9.486666 -12.831631 -12.342257 21.076256 
0.651325 -0.286527 -0.352994 177.092561 47.378345 -177.907169 -0.000000 -0.000000 0.000000 0.306027 -2.598801 3.166969 1.001760 -1.657813 1.832222 0.000000 0.000000 0.000000 1.512480 -1.835942 3.398801 -1.537645 -24.875441 3.110520 0.415137 -1.504952 0.039136 -2.850707 -1.858515 -1.847260 -80.596664 -20.184585 5.306035 6.409902 -10.026914 11.312227 0.866308 -2.891503 1.532723 18.142559 6.781501 5.182225 53.834354 20.138050 2.138269 -4.124577 55.395281 0.521034 0.000000 0.000000 -0.000000 -2.509633 18.087455 -12.257978 -2.252273 -26.853189 -4.956711 -0.000000 -0.000000 -0.000000 -7.787879 -34.212218 -9.836476 -13.764773 -13.165726 21.408165 
0.784044 -0.290689 -0.427811 176.415453 46.316142 -177.962892 -0.000000 -0.000000 0.000000 0.988444 -1.356737 3.279258 0.598814 -1.602848 2.110147 0.000000 0.000000 0.000000 1.044587 -1.712433 3.620734 -1.287005 -25.066167 3.036943 0.118224 -1.456892 0.247396 -2.976748 -1.649211 -1.771198 -80.240550 -21.381256 8.258530 7.428447 -10.664456 12.268079 0.416897 -2.777714 1.493151 17.043896 6.024218 5.142964 55.122383 18.520221 6.031041 -4.192485 55.263063 0.497742 0.000000 0.000000 -0.000000 -2.608201 17.718567 -12.586351 -2.192357 -27.089947 -5.297171 -0.000000 -0.000000 -0.000000 -7.741393 -35.722014 -10.212514 -14.041086 -13.454014 21.445205 
0.916526 -0.295996 -0.495813 175.979572 45.593982 -177.969274 -0.000000 -0.000000 0.000000 1.400236 -0.257235 3.293566 0.330731 -1.510169 2.400767 0.000000 0.000000 0.000000 0.734526 -1.593510 3.721234 -0.889605 -25.328772 2.847060 -0.074703 -1.361874 0.486461 -2.923743 -1.557957 -1.665852 -79.562982 -22.347298 9.942154 7.887259 -10.975353 12.121199 0.127641 -2.687533 1.545059 16.142393 5.545780 5.083849 55.924593 17.239197 9.212145 -4.256981 53.745723 0.538857 0.000000 0.000000 -0.000000 -2.621310 17.409161 -12.688772 -2.105652 -27.270378 -5.610312 -0.000000 -0.000000 -0.000000 -7.698980 -36.552501 -10.610288 -13.888447 -13.369085 21.454992 
1.046224 -0.300665 -0.558974 175.749373 44.575596 -178.006579 -0.000000 -0.000000 0.000000 1.627327 0.585483 3.229262 0.165636 -1.437908 2.656021 0.000000 0.000000 0.000000 0.575097 -1.511981 3.844972 -0.450107 -25.681080 2.625412 -0.194998 -1.290927 0.701318 -2.713648 -1.533999 -1.529321 -78.757313 -23.154706 10.542337 8.065706 -12.886152 11.682667 -0.060027 -2.622564 1.636396 15.457734 5.096845 4.984404 56.429531 16.471238 10.942996 -4.324938 52.603700 0.579033 0.000000 0.000000 -0.000000 -2.572649 17.197477 -12.512707 -2.006783 -27.397078 -5.880474 -0.000000 -0.000000 -0.000000 -7.731197 -36.742488 -10.823023 -13.443349 -13.158392 21.407659 
